# xmcd CD database file
#
# Track frame offsets:
#	150
#	38351
#	61609
#	117164
#	154263
#	190901
#	206172
#	264199
#	303260
#
# Disc length: 4225 seconds
#
# Revision: 0
# Processed by: cddbd v1.5.1PL2 Copyright (c) Steve Scherf et al.
# Submitted via: CDex 1.51
#
DISCID=6b107f09
DTITLE=TAO (Tachibana,  Actis Dato, Ohta) - Tomorrow Night Gig
DYEAR=2002
DGENRE=Jazz
TTITLE0=Saharawi
TTITLE1=Blue
TTITLE2=Bekaa
TTITLE3=Orange
TTITLE4=Morning Sickness
TTITLE5=Yellow
TTITLE6=Ile De Goree
TTITLE7=Wake  Up
TTITLE8=Red
EXTD=YEAR: 2002
EXTT0=
EXTT1=
EXTT2=
EXTT3=
EXTT4=
EXTT5=
EXTT6=
EXTT7=
EXTT8=
PLAYORDER=
